<mxfile host="app.diagrams.net" agent="Mozilla/5.0 (Windows NT 10.0; Win64; x64) AppleWebKit/537.36 (KHTML, like Gecko) Chrome/130.0.0.0 Safari/537.36" version="24.7.17">
  <diagram id="6a731a19-8d31-9384-78a2-239565b7b9f0" name="Page-1">
    <mxGraphModel dx="673" dy="814" grid="1" gridSize="10" guides="1" tooltips="1" connect="1" arrows="1" fold="1" page="1" pageScale="1" pageWidth="827" pageHeight="1169" background="none" math="0" shadow="0">
      <root>
        <mxCell id="0" />
        <mxCell id="1" parent="0" />
        <mxCell id="2108" value="" style="shape=mxgraph.cisco.security.pix_firewall;html=1;dashed=0;fillColor=#10739E;strokeColor=#ffffff;strokeWidth=2;verticalLabelPosition=bottom;verticalAlign=top;fontFamily=Helvetica;fontSize=36;fontColor=#FFB366" parent="1" vertex="1">
          <mxGeometry x="1206" y="252" width="77" height="51" as="geometry" />
        </mxCell>
        <mxCell id="2109" value="Internet" style="shape=mxgraph.cisco.storage.cloud;html=1;dashed=0;strokeColor=#23445D;fillColor=#ffffff;strokeWidth=2;fontFamily=Helvetica;fontSize=24;fontColor=#23445D;align=center;fontStyle=1" parent="1" vertex="1">
          <mxGeometry x="910" y="217.13" width="186" height="106" as="geometry" />
        </mxCell>
        <mxCell id="2138" value="" style="shape=mxgraph.cisco.routers.router;html=1;dashed=0;fillColor=#10739E;strokeColor=#ffffff;strokeWidth=2;verticalLabelPosition=bottom;verticalAlign=top;fontFamily=Helvetica;fontSize=36;fontColor=#FFB366" parent="1" vertex="1">
          <mxGeometry x="1083" y="252.13" width="78" height="53" as="geometry" />
        </mxCell>
        <mxCell id="2170" value="" style="elbow=horizontal;endArrow=none;html=1;strokeColor=#23445D;endFill=0;strokeWidth=4;rounded=1" parent="1" source="2108" target="2138" edge="1">
          <mxGeometry width="100" height="100" relative="1" as="geometry">
            <mxPoint x="1210" y="198.00000000000006" as="sourcePoint" />
            <mxPoint x="1210.2777777777778" y="240.08333333333337" as="targetPoint" />
          </mxGeometry>
        </mxCell>
        <mxCell id="HIduxNxZEO1oK-PVGiLZ-2269" style="edgeStyle=orthogonalEdgeStyle;rounded=0;orthogonalLoop=1;jettySize=auto;html=1;exitX=1;exitY=0.5;exitDx=0;exitDy=0;exitPerimeter=0;entryX=0;entryY=0.13;entryDx=-14;entryDy=0;entryPerimeter=0;" edge="1" parent="1" source="HIduxNxZEO1oK-PVGiLZ-2257" target="HIduxNxZEO1oK-PVGiLZ-2264">
          <mxGeometry relative="1" as="geometry">
            <mxPoint x="1440" y="300.0000000000001" as="targetPoint" />
          </mxGeometry>
        </mxCell>
        <mxCell id="HIduxNxZEO1oK-PVGiLZ-2257" value="" style="shape=mxgraph.cisco.routers.router;html=1;dashed=0;fillColor=#10739E;strokeColor=#ffffff;strokeWidth=2;verticalLabelPosition=bottom;verticalAlign=top;fontFamily=Helvetica;fontSize=36;fontColor=#FFB366" vertex="1" parent="1">
          <mxGeometry x="1320" y="252" width="78" height="53" as="geometry" />
        </mxCell>
        <mxCell id="HIduxNxZEO1oK-PVGiLZ-2260" value="" style="elbow=horizontal;endArrow=none;html=1;strokeColor=#23445D;endFill=0;strokeWidth=4;rounded=1;exitX=1;exitY=0.5;exitDx=0;exitDy=0;exitPerimeter=0;entryX=0;entryY=0.5;entryDx=0;entryDy=0;entryPerimeter=0;" edge="1" parent="1" source="2108" target="HIduxNxZEO1oK-PVGiLZ-2257">
          <mxGeometry width="100" height="100" relative="1" as="geometry">
            <mxPoint x="1300" y="193" as="sourcePoint" />
            <mxPoint x="1189" y="116" as="targetPoint" />
          </mxGeometry>
        </mxCell>
        <mxCell id="HIduxNxZEO1oK-PVGiLZ-2277" style="edgeStyle=orthogonalEdgeStyle;rounded=0;orthogonalLoop=1;jettySize=auto;html=1;exitX=1;exitY=0.08;exitDx=8;exitDy=0;exitPerimeter=0;startArrow=classic;startFill=1;" edge="1" parent="1" source="HIduxNxZEO1oK-PVGiLZ-2264" target="HIduxNxZEO1oK-PVGiLZ-2272">
          <mxGeometry relative="1" as="geometry">
            <Array as="points">
              <mxPoint x="1820" y="256" />
              <mxPoint x="1820" y="289" />
            </Array>
          </mxGeometry>
        </mxCell>
        <mxCell id="HIduxNxZEO1oK-PVGiLZ-2264" value="" style="shape=mxgraph.cisco.misc.vss;sketch=0;html=1;pointerEvents=1;dashed=0;fillColor=#036897;strokeColor=#ffffff;strokeWidth=2;verticalLabelPosition=bottom;verticalAlign=top;align=center;outlineConnect=0;points=[[0,0.13,0,-14,0],[0,0.37,0,-14,0],[0,0.62,0,-14,0],[0,0.87,0,-14,0],[1,0,0,8,-10],[1,0.08,0,8,0],[1,0.25,0,8,0],[1,0.42,0,8,0],[1,0.57,0,8,0],[1,0.75,0,8,0],[1,0.92,0,8,0]];" vertex="1" parent="1">
          <mxGeometry x="1522" y="245" width="102" height="134" as="geometry" />
        </mxCell>
        <mxCell id="HIduxNxZEO1oK-PVGiLZ-2271" style="edgeStyle=orthogonalEdgeStyle;rounded=0;orthogonalLoop=1;jettySize=auto;html=1;exitX=1;exitY=0;exitDx=8;exitDy=-11;exitPerimeter=0;entryX=1;entryY=0.5;entryDx=0;entryDy=0;entryPerimeter=0;jumpStyle=none;startArrow=classic;startFill=1;" edge="1" parent="1" source="HIduxNxZEO1oK-PVGiLZ-2264" target="HIduxNxZEO1oK-PVGiLZ-2266">
          <mxGeometry relative="1" as="geometry" />
        </mxCell>
        <mxCell id="HIduxNxZEO1oK-PVGiLZ-2281" style="edgeStyle=orthogonalEdgeStyle;rounded=0;orthogonalLoop=1;jettySize=auto;html=1;exitX=1;exitY=0.25;exitDx=8;exitDy=0;exitPerimeter=0;startArrow=classic;startFill=1;entryX=1;entryY=0.5;entryDx=0;entryDy=0;entryPerimeter=0;" edge="1" parent="1" source="HIduxNxZEO1oK-PVGiLZ-2264" target="HIduxNxZEO1oK-PVGiLZ-2275">
          <mxGeometry relative="1" as="geometry">
            <mxPoint x="1800" y="399" as="targetPoint" />
            <Array as="points">
              <mxPoint x="1800" y="279" />
              <mxPoint x="1800" y="356" />
            </Array>
          </mxGeometry>
        </mxCell>
        <mxCell id="HIduxNxZEO1oK-PVGiLZ-2282" value="&lt;font color=&quot;#23445d&quot;&gt;Splitters&lt;/font&gt;" style="rounded=1;whiteSpace=wrap;html=1;strokeColor=none;fillColor=none;fontSize=14;fontColor=#742B21;align=center;fontStyle=1" vertex="1" parent="1">
          <mxGeometry x="1864.5" y="162" width="73" height="19" as="geometry" />
        </mxCell>
        <mxCell id="HIduxNxZEO1oK-PVGiLZ-2295" value="" style="group" vertex="1" connectable="0" parent="1">
          <mxGeometry x="2248" y="140" width="209.25000000000045" height="168" as="geometry" />
        </mxCell>
        <mxCell id="HIduxNxZEO1oK-PVGiLZ-2291" value="&lt;font color=&quot;#23445d&quot;&gt;AP&lt;/font&gt;" style="rounded=1;whiteSpace=wrap;html=1;strokeColor=none;fillColor=none;fontSize=14;fontColor=#742B21;align=center;fontStyle=1" vertex="1" parent="HIduxNxZEO1oK-PVGiLZ-2295">
          <mxGeometry x="110.55000000000064" y="64.5" width="98.7" height="19" as="geometry" />
        </mxCell>
        <mxCell id="HIduxNxZEO1oK-PVGiLZ-2319" value="" style="group" vertex="1" connectable="0" parent="HIduxNxZEO1oK-PVGiLZ-2295">
          <mxGeometry width="197.4000000000001" height="168" as="geometry" />
        </mxCell>
        <mxCell id="HIduxNxZEO1oK-PVGiLZ-2293" style="edgeStyle=orthogonalEdgeStyle;rounded=0;orthogonalLoop=1;jettySize=auto;html=1;exitX=0.5;exitY=1;exitDx=0;exitDy=0;exitPerimeter=0;startArrow=classic;startFill=1;" edge="1" parent="HIduxNxZEO1oK-PVGiLZ-2319" source="HIduxNxZEO1oK-PVGiLZ-2268" target="HIduxNxZEO1oK-PVGiLZ-2283">
          <mxGeometry relative="1" as="geometry" />
        </mxCell>
        <mxCell id="HIduxNxZEO1oK-PVGiLZ-2268" value="" style="shape=mxgraph.cisco.misc.iptc;sketch=0;html=1;pointerEvents=1;dashed=0;fillColor=#036897;strokeColor=#ffffff;strokeWidth=2;verticalLabelPosition=bottom;verticalAlign=top;align=center;outlineConnect=0;" vertex="1" parent="HIduxNxZEO1oK-PVGiLZ-2319">
          <mxGeometry x="14.349999999999909" y="23" width="70" height="40" as="geometry" />
        </mxCell>
        <mxCell id="HIduxNxZEO1oK-PVGiLZ-2283" value="" style="image;points=[];aspect=fixed;html=1;align=center;shadow=0;dashed=0;image=img/lib/allied_telesis/switch/Switch_24_port_L2_POE.svg;" vertex="1" parent="HIduxNxZEO1oK-PVGiLZ-2319">
          <mxGeometry x="12.150000000000091" y="88" width="74.4" height="51" as="geometry" />
        </mxCell>
        <mxCell id="HIduxNxZEO1oK-PVGiLZ-2288" value="&lt;font color=&quot;#23445d&quot;&gt;5-port PoE&lt;/font&gt;&lt;div&gt;&lt;font color=&quot;#23445d&quot;&gt;Mini-Switch&lt;/font&gt;&lt;/div&gt;" style="rounded=1;whiteSpace=wrap;html=1;strokeColor=none;fillColor=none;fontSize=14;fontColor=#742B21;align=center;fontStyle=1" vertex="1" parent="HIduxNxZEO1oK-PVGiLZ-2319">
          <mxGeometry x="4.547473508864641e-13" y="149" width="98.7" height="19" as="geometry" />
        </mxCell>
        <mxCell id="HIduxNxZEO1oK-PVGiLZ-2290" value="&lt;font color=&quot;#23445d&quot;&gt;Nano ONT&lt;/font&gt;" style="rounded=1;whiteSpace=wrap;html=1;strokeColor=none;fillColor=none;fontSize=14;fontColor=#742B21;align=center;fontStyle=1" vertex="1" parent="HIduxNxZEO1oK-PVGiLZ-2319">
          <mxGeometry width="98.7" height="23" as="geometry" />
        </mxCell>
        <mxCell id="HIduxNxZEO1oK-PVGiLZ-2292" value="" style="shape=mxgraph.cisco.misc.dual_mode;sketch=0;html=1;pointerEvents=1;dashed=0;fillColor=#036897;strokeColor=#ffffff;strokeWidth=2;verticalLabelPosition=bottom;verticalAlign=top;align=center;outlineConnect=0;" vertex="1" parent="HIduxNxZEO1oK-PVGiLZ-2319">
          <mxGeometry x="122.40000000000009" y="89" width="75" height="54" as="geometry" />
        </mxCell>
        <mxCell id="HIduxNxZEO1oK-PVGiLZ-2294" style="edgeStyle=orthogonalEdgeStyle;rounded=0;orthogonalLoop=1;jettySize=auto;html=1;exitX=0;exitY=0.5;exitDx=0;exitDy=0;exitPerimeter=0;entryX=0.926;entryY=0.564;entryDx=0;entryDy=0;entryPerimeter=0;startArrow=classic;startFill=1;" edge="1" parent="HIduxNxZEO1oK-PVGiLZ-2319" source="HIduxNxZEO1oK-PVGiLZ-2292" target="HIduxNxZEO1oK-PVGiLZ-2283">
          <mxGeometry relative="1" as="geometry" />
        </mxCell>
        <mxCell id="HIduxNxZEO1oK-PVGiLZ-2306" style="edgeStyle=orthogonalEdgeStyle;rounded=0;orthogonalLoop=1;jettySize=auto;html=1;exitX=0;exitY=0.5;exitDx=0;exitDy=0;exitPerimeter=0;" edge="1" parent="1" source="HIduxNxZEO1oK-PVGiLZ-2266" target="HIduxNxZEO1oK-PVGiLZ-2303">
          <mxGeometry relative="1" as="geometry" />
        </mxCell>
        <mxCell id="HIduxNxZEO1oK-PVGiLZ-2266" value="" style="shape=mxgraph.cisco.misc.wae;sketch=0;html=1;pointerEvents=1;dashed=0;fillColor=#036897;strokeColor=#ffffff;strokeWidth=2;verticalLabelPosition=bottom;verticalAlign=top;align=center;outlineConnect=0;flipH=1;" vertex="1" parent="1">
          <mxGeometry x="1870" y="211" width="69" height="47.03" as="geometry" />
        </mxCell>
        <mxCell id="HIduxNxZEO1oK-PVGiLZ-2272" value="" style="shape=mxgraph.cisco.misc.wae;sketch=0;html=1;pointerEvents=1;dashed=0;fillColor=#036897;strokeColor=#ffffff;strokeWidth=2;verticalLabelPosition=bottom;verticalAlign=top;align=center;outlineConnect=0;flipH=1;" vertex="1" parent="1">
          <mxGeometry x="1865" y="269.0497237569061" width="74" height="47.027624309392266" as="geometry" />
        </mxCell>
        <mxCell id="HIduxNxZEO1oK-PVGiLZ-2275" value="" style="shape=mxgraph.cisco.misc.wae;sketch=0;html=1;pointerEvents=1;dashed=0;fillColor=#036897;strokeColor=#ffffff;strokeWidth=2;verticalLabelPosition=bottom;verticalAlign=top;align=center;outlineConnect=0;flipH=1;" vertex="1" parent="1">
          <mxGeometry x="1865" y="331.97237569060775" width="74" height="47.027624309392266" as="geometry" />
        </mxCell>
        <mxCell id="HIduxNxZEO1oK-PVGiLZ-2296" value="" style="shape=mxgraph.cisco.misc.dot-dot;sketch=0;html=1;pointerEvents=1;dashed=0;fillColor=#036897;strokeColor=#ffffff;strokeWidth=2;verticalLabelPosition=bottom;verticalAlign=top;align=center;outlineConnect=0;rotation=90;" vertex="1" parent="1">
          <mxGeometry x="2059" y="306.01" width="75.75" height="18.75" as="geometry" />
        </mxCell>
        <mxCell id="HIduxNxZEO1oK-PVGiLZ-2297" value="&lt;font style=&quot;font-size: 20px;&quot; color=&quot;#23445d&quot;&gt;x16&lt;/font&gt;" style="rounded=1;whiteSpace=wrap;html=1;strokeColor=none;fillColor=none;fontSize=14;fontColor=#742B21;align=center;fontStyle=1" vertex="1" parent="1">
          <mxGeometry x="2109.88" y="307.63" width="50" height="15.5" as="geometry" />
        </mxCell>
        <mxCell id="HIduxNxZEO1oK-PVGiLZ-2300" value="" style="shape=mxgraph.cisco.misc.wae;sketch=0;html=1;pointerEvents=1;dashed=0;fillColor=#036897;strokeColor=#ffffff;strokeWidth=2;verticalLabelPosition=bottom;verticalAlign=top;align=center;outlineConnect=0;flipH=1;" vertex="1" parent="1">
          <mxGeometry x="2059.88" y="160" width="74" height="47.027624309392266" as="geometry" />
        </mxCell>
        <mxCell id="HIduxNxZEO1oK-PVGiLZ-2301" style="edgeStyle=orthogonalEdgeStyle;rounded=0;orthogonalLoop=1;jettySize=auto;html=1;entryX=1;entryY=0.5;entryDx=0;entryDy=0;entryPerimeter=0;exitX=0.08;exitY=0.09;exitDx=0;exitDy=0;exitPerimeter=0;" edge="1" parent="1" source="HIduxNxZEO1oK-PVGiLZ-2266" target="HIduxNxZEO1oK-PVGiLZ-2300">
          <mxGeometry relative="1" as="geometry">
            <mxPoint x="2010" y="239" as="sourcePoint" />
          </mxGeometry>
        </mxCell>
        <mxCell id="HIduxNxZEO1oK-PVGiLZ-2303" value="" style="shape=mxgraph.cisco.misc.wae;sketch=0;html=1;pointerEvents=1;dashed=0;fillColor=#036897;strokeColor=#ffffff;strokeWidth=2;verticalLabelPosition=bottom;verticalAlign=top;align=center;outlineConnect=0;flipH=1;" vertex="1" parent="1">
          <mxGeometry x="2059.88" y="210.98000000000002" width="74" height="47.027624309392266" as="geometry" />
        </mxCell>
        <mxCell id="HIduxNxZEO1oK-PVGiLZ-2307" value="" style="shape=mxgraph.cisco.misc.wae;sketch=0;html=1;pointerEvents=1;dashed=0;fillColor=#036897;strokeColor=#ffffff;strokeWidth=2;verticalLabelPosition=bottom;verticalAlign=top;align=center;outlineConnect=0;flipH=1;" vertex="1" parent="1">
          <mxGeometry x="2059" y="365.51" width="74" height="47.027624309392266" as="geometry" />
        </mxCell>
        <mxCell id="HIduxNxZEO1oK-PVGiLZ-2308" style="edgeStyle=orthogonalEdgeStyle;rounded=0;orthogonalLoop=1;jettySize=auto;html=1;exitX=0;exitY=1;exitDx=0;exitDy=0;exitPerimeter=0;entryX=1;entryY=0.5;entryDx=0;entryDy=0;entryPerimeter=0;" edge="1" parent="1" source="HIduxNxZEO1oK-PVGiLZ-2266" target="HIduxNxZEO1oK-PVGiLZ-2307">
          <mxGeometry relative="1" as="geometry">
            <Array as="points">
              <mxPoint x="2000" y="258" />
              <mxPoint x="2000" y="389" />
            </Array>
          </mxGeometry>
        </mxCell>
        <mxCell id="HIduxNxZEO1oK-PVGiLZ-2309" style="edgeStyle=orthogonalEdgeStyle;rounded=0;orthogonalLoop=1;jettySize=auto;html=1;exitX=0;exitY=0.5;exitDx=0;exitDy=0;exitPerimeter=0;entryX=0;entryY=0.5;entryDx=0;entryDy=0;entryPerimeter=0;" edge="1" parent="1" source="HIduxNxZEO1oK-PVGiLZ-2300" target="HIduxNxZEO1oK-PVGiLZ-2268">
          <mxGeometry relative="1" as="geometry" />
        </mxCell>
        <mxCell id="HIduxNxZEO1oK-PVGiLZ-2320" value="" style="group" vertex="1" connectable="0" parent="1">
          <mxGeometry x="2240" y="329" width="209.25000000000045" height="168" as="geometry" />
        </mxCell>
        <mxCell id="HIduxNxZEO1oK-PVGiLZ-2321" value="&lt;font color=&quot;#23445d&quot;&gt;AP&lt;/font&gt;" style="rounded=1;whiteSpace=wrap;html=1;strokeColor=none;fillColor=none;fontSize=14;fontColor=#742B21;align=center;fontStyle=1" vertex="1" parent="HIduxNxZEO1oK-PVGiLZ-2320">
          <mxGeometry x="110.55000000000064" y="64.5" width="98.7" height="19" as="geometry" />
        </mxCell>
        <mxCell id="HIduxNxZEO1oK-PVGiLZ-2322" value="" style="group" vertex="1" connectable="0" parent="HIduxNxZEO1oK-PVGiLZ-2320">
          <mxGeometry width="197.4000000000001" height="168" as="geometry" />
        </mxCell>
        <mxCell id="HIduxNxZEO1oK-PVGiLZ-2323" style="edgeStyle=orthogonalEdgeStyle;rounded=0;orthogonalLoop=1;jettySize=auto;html=1;exitX=0.5;exitY=1;exitDx=0;exitDy=0;exitPerimeter=0;startArrow=classic;startFill=1;" edge="1" parent="HIduxNxZEO1oK-PVGiLZ-2322" source="HIduxNxZEO1oK-PVGiLZ-2324" target="HIduxNxZEO1oK-PVGiLZ-2325">
          <mxGeometry relative="1" as="geometry" />
        </mxCell>
        <mxCell id="HIduxNxZEO1oK-PVGiLZ-2324" value="" style="shape=mxgraph.cisco.misc.iptc;sketch=0;html=1;pointerEvents=1;dashed=0;fillColor=#036897;strokeColor=#ffffff;strokeWidth=2;verticalLabelPosition=bottom;verticalAlign=top;align=center;outlineConnect=0;" vertex="1" parent="HIduxNxZEO1oK-PVGiLZ-2322">
          <mxGeometry x="14.349999999999909" y="23" width="70" height="40" as="geometry" />
        </mxCell>
        <mxCell id="HIduxNxZEO1oK-PVGiLZ-2325" value="" style="image;points=[];aspect=fixed;html=1;align=center;shadow=0;dashed=0;image=img/lib/allied_telesis/switch/Switch_24_port_L2_POE.svg;" vertex="1" parent="HIduxNxZEO1oK-PVGiLZ-2322">
          <mxGeometry x="12.150000000000091" y="88" width="74.4" height="51" as="geometry" />
        </mxCell>
        <mxCell id="HIduxNxZEO1oK-PVGiLZ-2326" value="&lt;font color=&quot;#23445d&quot;&gt;5-port PoE&lt;/font&gt;&lt;div&gt;&lt;font color=&quot;#23445d&quot;&gt;Mini-Switch&lt;/font&gt;&lt;/div&gt;" style="rounded=1;whiteSpace=wrap;html=1;strokeColor=none;fillColor=none;fontSize=14;fontColor=#742B21;align=center;fontStyle=1" vertex="1" parent="HIduxNxZEO1oK-PVGiLZ-2322">
          <mxGeometry x="4.547473508864641e-13" y="149" width="98.7" height="19" as="geometry" />
        </mxCell>
        <mxCell id="HIduxNxZEO1oK-PVGiLZ-2327" value="&lt;font color=&quot;#23445d&quot;&gt;Nano ONT&lt;/font&gt;" style="rounded=1;whiteSpace=wrap;html=1;strokeColor=none;fillColor=none;fontSize=14;fontColor=#742B21;align=center;fontStyle=1" vertex="1" parent="HIduxNxZEO1oK-PVGiLZ-2322">
          <mxGeometry width="98.7" height="23" as="geometry" />
        </mxCell>
        <mxCell id="HIduxNxZEO1oK-PVGiLZ-2328" value="" style="shape=mxgraph.cisco.misc.dual_mode;sketch=0;html=1;pointerEvents=1;dashed=0;fillColor=#036897;strokeColor=#ffffff;strokeWidth=2;verticalLabelPosition=bottom;verticalAlign=top;align=center;outlineConnect=0;" vertex="1" parent="HIduxNxZEO1oK-PVGiLZ-2322">
          <mxGeometry x="122.40000000000009" y="89" width="75" height="54" as="geometry" />
        </mxCell>
        <mxCell id="HIduxNxZEO1oK-PVGiLZ-2329" style="edgeStyle=orthogonalEdgeStyle;rounded=0;orthogonalLoop=1;jettySize=auto;html=1;exitX=0;exitY=0.5;exitDx=0;exitDy=0;exitPerimeter=0;entryX=0.926;entryY=0.564;entryDx=0;entryDy=0;entryPerimeter=0;startArrow=classic;startFill=1;" edge="1" parent="HIduxNxZEO1oK-PVGiLZ-2322" source="HIduxNxZEO1oK-PVGiLZ-2328" target="HIduxNxZEO1oK-PVGiLZ-2325">
          <mxGeometry relative="1" as="geometry" />
        </mxCell>
        <mxCell id="HIduxNxZEO1oK-PVGiLZ-2330" style="edgeStyle=orthogonalEdgeStyle;rounded=0;orthogonalLoop=1;jettySize=auto;html=1;exitX=0;exitY=0.5;exitDx=0;exitDy=0;exitPerimeter=0;entryX=0;entryY=0.5;entryDx=0;entryDy=0;entryPerimeter=0;" edge="1" parent="1" source="HIduxNxZEO1oK-PVGiLZ-2303" target="HIduxNxZEO1oK-PVGiLZ-2324">
          <mxGeometry relative="1" as="geometry" />
        </mxCell>
        <mxCell id="HIduxNxZEO1oK-PVGiLZ-2331" value="" style="group" vertex="1" connectable="0" parent="1">
          <mxGeometry x="2250" y="529" width="209.25000000000045" height="168" as="geometry" />
        </mxCell>
        <mxCell id="HIduxNxZEO1oK-PVGiLZ-2332" value="&lt;font color=&quot;#23445d&quot;&gt;AP&lt;/font&gt;" style="rounded=1;whiteSpace=wrap;html=1;strokeColor=none;fillColor=none;fontSize=14;fontColor=#742B21;align=center;fontStyle=1" vertex="1" parent="HIduxNxZEO1oK-PVGiLZ-2331">
          <mxGeometry x="110.55000000000064" y="64.5" width="98.7" height="19" as="geometry" />
        </mxCell>
        <mxCell id="HIduxNxZEO1oK-PVGiLZ-2333" value="" style="group" vertex="1" connectable="0" parent="HIduxNxZEO1oK-PVGiLZ-2331">
          <mxGeometry width="197.4000000000001" height="168" as="geometry" />
        </mxCell>
        <mxCell id="HIduxNxZEO1oK-PVGiLZ-2334" style="edgeStyle=orthogonalEdgeStyle;rounded=0;orthogonalLoop=1;jettySize=auto;html=1;exitX=0.5;exitY=1;exitDx=0;exitDy=0;exitPerimeter=0;startArrow=classic;startFill=1;" edge="1" parent="HIduxNxZEO1oK-PVGiLZ-2333" source="HIduxNxZEO1oK-PVGiLZ-2335" target="HIduxNxZEO1oK-PVGiLZ-2336">
          <mxGeometry relative="1" as="geometry" />
        </mxCell>
        <mxCell id="HIduxNxZEO1oK-PVGiLZ-2335" value="" style="shape=mxgraph.cisco.misc.iptc;sketch=0;html=1;pointerEvents=1;dashed=0;fillColor=#036897;strokeColor=#ffffff;strokeWidth=2;verticalLabelPosition=bottom;verticalAlign=top;align=center;outlineConnect=0;" vertex="1" parent="HIduxNxZEO1oK-PVGiLZ-2333">
          <mxGeometry x="14.349999999999909" y="23" width="70" height="40" as="geometry" />
        </mxCell>
        <mxCell id="HIduxNxZEO1oK-PVGiLZ-2336" value="" style="image;points=[];aspect=fixed;html=1;align=center;shadow=0;dashed=0;image=img/lib/allied_telesis/switch/Switch_24_port_L2_POE.svg;" vertex="1" parent="HIduxNxZEO1oK-PVGiLZ-2333">
          <mxGeometry x="12.150000000000091" y="88" width="74.4" height="51" as="geometry" />
        </mxCell>
        <mxCell id="HIduxNxZEO1oK-PVGiLZ-2337" value="&lt;font color=&quot;#23445d&quot;&gt;5-port PoE&lt;/font&gt;&lt;div&gt;&lt;font color=&quot;#23445d&quot;&gt;Mini-Switch&lt;/font&gt;&lt;/div&gt;" style="rounded=1;whiteSpace=wrap;html=1;strokeColor=none;fillColor=none;fontSize=14;fontColor=#742B21;align=center;fontStyle=1" vertex="1" parent="HIduxNxZEO1oK-PVGiLZ-2333">
          <mxGeometry x="4.547473508864641e-13" y="149" width="98.7" height="19" as="geometry" />
        </mxCell>
        <mxCell id="HIduxNxZEO1oK-PVGiLZ-2338" value="&lt;font color=&quot;#23445d&quot;&gt;Nano ONT&lt;/font&gt;" style="rounded=1;whiteSpace=wrap;html=1;strokeColor=none;fillColor=none;fontSize=14;fontColor=#742B21;align=center;fontStyle=1" vertex="1" parent="HIduxNxZEO1oK-PVGiLZ-2333">
          <mxGeometry width="98.7" height="23" as="geometry" />
        </mxCell>
        <mxCell id="HIduxNxZEO1oK-PVGiLZ-2339" value="" style="shape=mxgraph.cisco.misc.dual_mode;sketch=0;html=1;pointerEvents=1;dashed=0;fillColor=#036897;strokeColor=#ffffff;strokeWidth=2;verticalLabelPosition=bottom;verticalAlign=top;align=center;outlineConnect=0;" vertex="1" parent="HIduxNxZEO1oK-PVGiLZ-2333">
          <mxGeometry x="122.40000000000009" y="89" width="75" height="54" as="geometry" />
        </mxCell>
        <mxCell id="HIduxNxZEO1oK-PVGiLZ-2340" style="edgeStyle=orthogonalEdgeStyle;rounded=0;orthogonalLoop=1;jettySize=auto;html=1;exitX=0;exitY=0.5;exitDx=0;exitDy=0;exitPerimeter=0;entryX=0.926;entryY=0.564;entryDx=0;entryDy=0;entryPerimeter=0;startArrow=classic;startFill=1;" edge="1" parent="HIduxNxZEO1oK-PVGiLZ-2333" source="HIduxNxZEO1oK-PVGiLZ-2339" target="HIduxNxZEO1oK-PVGiLZ-2336">
          <mxGeometry relative="1" as="geometry" />
        </mxCell>
        <mxCell id="HIduxNxZEO1oK-PVGiLZ-2341" style="edgeStyle=orthogonalEdgeStyle;rounded=0;orthogonalLoop=1;jettySize=auto;html=1;exitX=0;exitY=0.5;exitDx=0;exitDy=0;exitPerimeter=0;entryX=0;entryY=0.5;entryDx=0;entryDy=0;entryPerimeter=0;" edge="1" parent="1" source="HIduxNxZEO1oK-PVGiLZ-2307" target="HIduxNxZEO1oK-PVGiLZ-2335">
          <mxGeometry relative="1" as="geometry" />
        </mxCell>
        <mxCell id="HIduxNxZEO1oK-PVGiLZ-2352" value="" style="group" vertex="1" connectable="0" parent="1">
          <mxGeometry x="1811.5" y="650" width="209.25000000000045" height="168" as="geometry" />
        </mxCell>
        <mxCell id="HIduxNxZEO1oK-PVGiLZ-2353" value="&lt;font color=&quot;#23445d&quot;&gt;AP&lt;/font&gt;" style="rounded=1;whiteSpace=wrap;html=1;strokeColor=none;fillColor=none;fontSize=14;fontColor=#742B21;align=center;fontStyle=1" vertex="1" parent="HIduxNxZEO1oK-PVGiLZ-2352">
          <mxGeometry x="110.55000000000064" y="64.5" width="98.7" height="19" as="geometry" />
        </mxCell>
        <mxCell id="HIduxNxZEO1oK-PVGiLZ-2354" value="" style="group" vertex="1" connectable="0" parent="HIduxNxZEO1oK-PVGiLZ-2352">
          <mxGeometry width="197.4000000000001" height="168" as="geometry" />
        </mxCell>
        <mxCell id="HIduxNxZEO1oK-PVGiLZ-2355" style="edgeStyle=orthogonalEdgeStyle;rounded=0;orthogonalLoop=1;jettySize=auto;html=1;exitX=0.5;exitY=1;exitDx=0;exitDy=0;exitPerimeter=0;startArrow=classic;startFill=1;" edge="1" parent="HIduxNxZEO1oK-PVGiLZ-2354" source="HIduxNxZEO1oK-PVGiLZ-2356" target="HIduxNxZEO1oK-PVGiLZ-2357">
          <mxGeometry relative="1" as="geometry" />
        </mxCell>
        <mxCell id="HIduxNxZEO1oK-PVGiLZ-2356" value="" style="shape=mxgraph.cisco.misc.iptc;sketch=0;html=1;pointerEvents=1;dashed=0;fillColor=#036897;strokeColor=#ffffff;strokeWidth=2;verticalLabelPosition=bottom;verticalAlign=top;align=center;outlineConnect=0;" vertex="1" parent="HIduxNxZEO1oK-PVGiLZ-2354">
          <mxGeometry x="14.349999999999909" y="23" width="70" height="40" as="geometry" />
        </mxCell>
        <mxCell id="HIduxNxZEO1oK-PVGiLZ-2357" value="" style="image;points=[];aspect=fixed;html=1;align=center;shadow=0;dashed=0;image=img/lib/allied_telesis/switch/Switch_24_port_L2_POE.svg;" vertex="1" parent="HIduxNxZEO1oK-PVGiLZ-2354">
          <mxGeometry x="12.150000000000091" y="88" width="74.4" height="51" as="geometry" />
        </mxCell>
        <mxCell id="HIduxNxZEO1oK-PVGiLZ-2358" value="&lt;font color=&quot;#23445d&quot;&gt;5-port PoE&lt;/font&gt;&lt;div&gt;&lt;font color=&quot;#23445d&quot;&gt;Mini-Switch&lt;/font&gt;&lt;/div&gt;" style="rounded=1;whiteSpace=wrap;html=1;strokeColor=none;fillColor=none;fontSize=14;fontColor=#742B21;align=center;fontStyle=1" vertex="1" parent="HIduxNxZEO1oK-PVGiLZ-2354">
          <mxGeometry x="4.547473508864641e-13" y="149" width="98.7" height="19" as="geometry" />
        </mxCell>
        <mxCell id="HIduxNxZEO1oK-PVGiLZ-2359" value="&lt;font color=&quot;#23445d&quot;&gt;Nano ONT&lt;/font&gt;" style="rounded=1;whiteSpace=wrap;html=1;strokeColor=none;fillColor=none;fontSize=14;fontColor=#742B21;align=center;fontStyle=1" vertex="1" parent="HIduxNxZEO1oK-PVGiLZ-2354">
          <mxGeometry width="98.7" height="23" as="geometry" />
        </mxCell>
        <mxCell id="HIduxNxZEO1oK-PVGiLZ-2360" value="" style="shape=mxgraph.cisco.misc.dual_mode;sketch=0;html=1;pointerEvents=1;dashed=0;fillColor=#036897;strokeColor=#ffffff;strokeWidth=2;verticalLabelPosition=bottom;verticalAlign=top;align=center;outlineConnect=0;" vertex="1" parent="HIduxNxZEO1oK-PVGiLZ-2354">
          <mxGeometry x="122.40000000000009" y="89" width="75" height="54" as="geometry" />
        </mxCell>
        <mxCell id="HIduxNxZEO1oK-PVGiLZ-2361" style="edgeStyle=orthogonalEdgeStyle;rounded=0;orthogonalLoop=1;jettySize=auto;html=1;exitX=0;exitY=0.5;exitDx=0;exitDy=0;exitPerimeter=0;entryX=0.926;entryY=0.564;entryDx=0;entryDy=0;entryPerimeter=0;startArrow=classic;startFill=1;" edge="1" parent="HIduxNxZEO1oK-PVGiLZ-2354" source="HIduxNxZEO1oK-PVGiLZ-2360" target="HIduxNxZEO1oK-PVGiLZ-2357">
          <mxGeometry relative="1" as="geometry" />
        </mxCell>
        <mxCell id="HIduxNxZEO1oK-PVGiLZ-2362" value="" style="html=1;verticalLabelPosition=bottom;align=center;labelBackgroundColor=#ffffff;verticalAlign=top;strokeWidth=2;strokeColor=#0080F0;shadow=0;dashed=0;shape=mxgraph.ios7.icons.battery;rotation=-90;" vertex="1" parent="1">
          <mxGeometry x="1504" y="878" width="70" height="43" as="geometry" />
        </mxCell>
        <mxCell id="HIduxNxZEO1oK-PVGiLZ-2364" value="" style="shape=mxgraph.cisco.controllers_and_modules.system_controller;html=1;pointerEvents=1;dashed=0;fillColor=#036897;strokeColor=#ffffff;strokeWidth=2;verticalLabelPosition=bottom;verticalAlign=top;align=center;outlineConnect=0;" vertex="1" parent="1">
          <mxGeometry x="1513" y="728" width="61" height="58" as="geometry" />
        </mxCell>
        <mxCell id="HIduxNxZEO1oK-PVGiLZ-2366" value="" style="shape=image;verticalLabelPosition=bottom;labelBackgroundColor=default;verticalAlign=top;aspect=fixed;imageAspect=0;image=https://symbols-electrical.getvecta.com/stencil_224/52_power-supply-rectifier-ac-dc.af28b1a78d.png;rotation=-180;clipPath=inset(19.33% 19.67% 19.67% 19.33%);" vertex="1" parent="1">
          <mxGeometry x="1628.5" y="708" width="108" height="108" as="geometry" />
        </mxCell>
        <mxCell id="HIduxNxZEO1oK-PVGiLZ-2367" value="" style="shape=image;html=1;verticalAlign=top;verticalLabelPosition=bottom;labelBackgroundColor=#ffffff;imageAspect=0;aspect=fixed;image=https://cdn1.iconfinder.com/data/icons/science-technology-outline-24-px/24/tech_solar_panelsolar_cellsolar_energy_panelsolar_system-128.png;imageBorder=none;imageBackground=#424242;fillStyle=auto;" vertex="1" parent="1">
          <mxGeometry x="1479.5" y="520" width="128" height="128" as="geometry" />
        </mxCell>
        <mxCell id="HIduxNxZEO1oK-PVGiLZ-2368" value="" style="shape=mxgraph.lean_mapping.electronic_info_flow_edge;html=1;rounded=0;exitX=0.5;exitY=1;exitDx=0;exitDy=0;" edge="1" parent="1" source="HIduxNxZEO1oK-PVGiLZ-2367" target="HIduxNxZEO1oK-PVGiLZ-2364">
          <mxGeometry width="100" height="100" relative="1" as="geometry">
            <mxPoint x="1688.5" y="658" as="sourcePoint" />
            <mxPoint x="1788.5" y="558" as="targetPoint" />
          </mxGeometry>
        </mxCell>
        <mxCell id="HIduxNxZEO1oK-PVGiLZ-2369" value="" style="shape=mxgraph.lean_mapping.electronic_info_flow_edge;html=1;rounded=0;exitX=1.054;exitY=0.491;exitDx=0;exitDy=0;entryX=0.389;entryY=1.007;entryDx=0;entryDy=0;entryPerimeter=0;exitPerimeter=0;" edge="1" parent="1" source="HIduxNxZEO1oK-PVGiLZ-2362" target="HIduxNxZEO1oK-PVGiLZ-2364">
          <mxGeometry width="100" height="100" relative="1" as="geometry">
            <mxPoint x="1553.5" y="658" as="sourcePoint" />
            <mxPoint x="1548.5" y="708" as="targetPoint" />
          </mxGeometry>
        </mxCell>
        <mxCell id="HIduxNxZEO1oK-PVGiLZ-2370" value="" style="shape=mxgraph.lean_mapping.electronic_info_flow_edge;html=1;rounded=0;entryX=1;entryY=0.5;entryDx=0;entryDy=0;" edge="1" parent="1" source="HIduxNxZEO1oK-PVGiLZ-2364" target="HIduxNxZEO1oK-PVGiLZ-2366">
          <mxGeometry width="100" height="100" relative="1" as="geometry">
            <mxPoint x="1548.5" y="871" as="sourcePoint" />
            <mxPoint x="1546.5" y="796" as="targetPoint" />
          </mxGeometry>
        </mxCell>
        <mxCell id="HIduxNxZEO1oK-PVGiLZ-2371" style="edgeStyle=orthogonalEdgeStyle;rounded=0;orthogonalLoop=1;jettySize=auto;html=1;exitX=0;exitY=0.5;exitDx=0;exitDy=0;entryX=-0.026;entryY=0.486;entryDx=0;entryDy=0;entryPerimeter=0;" edge="1" parent="1" source="HIduxNxZEO1oK-PVGiLZ-2366" target="HIduxNxZEO1oK-PVGiLZ-2357">
          <mxGeometry relative="1" as="geometry" />
        </mxCell>
        <mxCell id="HIduxNxZEO1oK-PVGiLZ-2372" value="&lt;font color=&quot;#23445d&quot;&gt;Panel Solar 12V&lt;/font&gt;" style="rounded=1;whiteSpace=wrap;html=1;strokeColor=none;fillColor=none;fontSize=14;fontColor=#742B21;align=center;fontStyle=1" vertex="1" parent="1">
          <mxGeometry x="1507" y="470" width="73" height="19" as="geometry" />
        </mxCell>
        <mxCell id="HIduxNxZEO1oK-PVGiLZ-2373" value="&lt;font color=&quot;#23445d&quot;&gt;BMS&lt;/font&gt;" style="rounded=1;whiteSpace=wrap;html=1;strokeColor=none;fillColor=none;fontSize=14;fontColor=#742B21;align=center;fontStyle=1" vertex="1" parent="1">
          <mxGeometry x="1440" y="752.5" width="73" height="19" as="geometry" />
        </mxCell>
        <mxCell id="HIduxNxZEO1oK-PVGiLZ-2374" value="&lt;font color=&quot;#23445d&quot;&gt;Bateria Sellada Acido-Plotmo&lt;/font&gt;" style="rounded=1;whiteSpace=wrap;html=1;strokeColor=none;fillColor=none;fontSize=14;fontColor=#742B21;align=center;fontStyle=1" vertex="1" parent="1">
          <mxGeometry x="1487.75" y="958" width="105.5" height="19" as="geometry" />
        </mxCell>
        <mxCell id="HIduxNxZEO1oK-PVGiLZ-2375" value="&lt;font color=&quot;#23445d&quot;&gt;Inverter&lt;/font&gt;" style="rounded=1;whiteSpace=wrap;html=1;strokeColor=none;fillColor=none;fontSize=14;fontColor=#742B21;align=center;fontStyle=1" vertex="1" parent="1">
          <mxGeometry x="1646" y="678" width="73" height="19" as="geometry" />
        </mxCell>
      </root>
    </mxGraphModel>
  </diagram>
</mxfile>
